<?xml version="1.0" standalone="no"?>
<!DOCTYPE svg PUBLIC "-//W3C//DTD SVG 20010904//EN"
 "http://www.w3.org/TR/2001/REC-SVG-20010904/DTD/svg10.dtd">
<svg version="1.0" xmlns="http://www.w3.org/2000/svg"
 width="414.000000pt" height="181.000000pt" viewBox="0 0 414.000000 181.000000"
 preserveAspectRatio="xMidYMid meet">

<g transform="translate(0.000000,181.000000) scale(0.100000,-0.100000)"
fill="#000000" stroke="none">
<path d="M2550 1380 l0 -90 80 0 80 0 0 90 0 90 -80 0 -80 0 0 -90z"/>
<path d="M2970 1360 l0 -59 73 -3 72 -3 5 -275 c5 -296 7 -306 62 -358 36 -32
79 -42 195 -42 l103 0 0 60 0 60 -73 0 c-86 0 -112 14 -127 68 -6 21 -10 158
-10 325 l0 287 -150 0 -150 0 0 -60z"/>
<path d="M590 1384 c-95 -20 -90 -16 -90 -89 0 -73 -1 -73 74 -50 64 19 159
19 196 0 32 -17 46 -51 36 -90 -9 -35 -54 -55 -126 -55 l-60 0 0 -69 0 -68 68
-5 c75 -6 112 -24 130 -64 27 -59 3 -119 -58 -144 -40 -17 -148 -8 -223 19
l-57 19 0 -72 0 -73 48 -14 c29 -9 95 -14 172 -14 135 0 176 12 227 67 48 52
66 146 43 228 -11 41 -61 94 -105 110 l-30 12 30 13 c17 7 43 27 60 44 24 26
30 41 33 95 7 110 -39 171 -153 201 -71 18 -128 18 -215 -1z"/>
<path d="M1236 1185 c-27 -18 -36 -21 -36 -10 0 12 -14 15 -60 15 l-60 0 0
-285 0 -285 65 0 65 0 0 210 c0 216 7 260 40 260 40 0 45 -24 48 -252 l4 -218
59 0 59 0 0 204 c0 113 4 216 10 231 13 33 37 42 58 21 15 -14 17 -47 20 -236
l3 -220 60 0 59 0 0 226 c0 130 -5 243 -11 269 -16 64 -49 90 -114 90 -45 0
-58 -4 -83 -28 -25 -24 -30 -26 -36 -12 -6 17 -64 45 -94 45 -11 0 -36 -11
-56 -25z"/>
<path d="M1900 1204 c-14 -3 -49 -12 -77 -20 l-53 -15 0 -65 c0 -59 2 -66 18
-61 9 4 44 16 77 28 45 16 76 20 124 17 68 -4 91 -20 91 -63 0 -21 -5 -22
-110 -27 -91 -5 -119 -10 -158 -30 -64 -33 -92 -83 -92 -164 0 -124 71 -194
196 -194 70 0 108 11 142 42 l22 21 0 -26 0 -27 81 0 81 0 -4 218 c-3 209 -4
219 -28 267 -35 69 -90 96 -203 100 -45 2 -93 1 -107 -1z m180 -349 c0 -47
-22 -98 -51 -119 -34 -23 -101 -21 -125 5 -24 26 -25 92 -2 115 18 19 70 31
136 33 42 1 42 1 42 -34z"/>
<path d="M2410 1130 l0 -60 70 0 70 0 0 -165 0 -165 -90 0 -90 0 0 -60 0 -60
260 0 260 0 0 60 0 60 -90 0 -90 0 0 225 0 225 -150 0 -150 0 0 -60z"/>
<path d="M432 558 c-7 -7 -12 -24 -12 -38 0 -33 17 -50 50 -50 14 0 31 5 38
12 7 7 12 24 12 38 0 33 -17 50 -50 50 -14 0 -31 -5 -38 -12z"/>
<path d="M636 554 c-9 -8 -16 -24 -16 -34 0 -40 60 -66 88 -38 15 15 15 61 0
76 -17 17 -54 15 -72 -4z"/>
<path d="M837 552 c-22 -24 -21 -45 1 -65 27 -24 59 -21 78 8 15 23 15 27 0
50 -20 30 -56 33 -79 7z"/>
<path d="M1034 545 c-15 -23 -15 -27 0 -50 20 -30 56 -33 79 -7 22 24 21 45
-1 65 -27 24 -59 21 -78 -8z"/>
<path d="M1242 558 c-15 -15 -15 -61 0 -76 28 -28 88 -2 88 38 0 40 -60 66
-88 38z"/>
<path d="M1442 558 c-7 -7 -12 -24 -12 -38 0 -33 17 -50 50 -50 33 0 50 17 50
50 0 33 -17 50 -50 50 -14 0 -31 -5 -38 -12z"/>
<path d="M1638 545 c-17 -37 3 -75 40 -75 35 0 52 16 52 50 0 34 -17 50 -52
50 -21 0 -32 -7 -40 -25z"/>
<path d="M1846 554 c-33 -32 -8 -84 39 -84 15 0 31 10 41 25 15 23 15 27 0 50
-19 29 -56 33 -80 9z"/>
<path d="M2044 545 c-15 -23 -15 -27 0 -50 20 -30 56 -33 79 -7 22 24 21 45
-1 65 -27 24 -59 21 -78 -8z"/>
<path d="M2252 558 c-7 -7 -12 -24 -12 -38 0 -14 5 -31 12 -38 28 -28 88 -2
88 38 0 40 -60 66 -88 38z"/>
<path d="M2452 558 c-7 -7 -12 -24 -12 -38 0 -34 17 -50 52 -50 37 0 57 38 40
75 -13 27 -58 35 -80 13z"/>
<path d="M2648 545 c-17 -37 3 -75 40 -75 35 0 52 16 52 50 0 34 -17 50 -52
50 -21 0 -32 -7 -40 -25z"/>
<path d="M2856 554 c-32 -31 -8 -84 38 -84 29 0 46 18 46 50 0 14 -5 31 -12
38 -17 17 -54 15 -72 -4z"/>
<path d="M3057 552 c-22 -24 -21 -45 1 -65 27 -24 59 -21 78 8 15 23 15 27 0
50 -20 30 -56 33 -79 7z"/>
<path d="M3254 545 c-15 -23 -15 -27 0 -50 28 -42 96 -24 96 25 0 49 -68 67
-96 25z"/>
<path d="M3462 558 c-7 -7 -12 -24 -12 -38 0 -14 5 -31 12 -38 28 -28 88 -2
88 38 0 40 -60 66 -88 38z"/>
</g>
</svg>
